STARTFONT 2.3
FONT -FontForge-Shadows Into Light-Book-R-Normal--10-100-72-72-P-42-ISO10646-1
SIZE 10 72 72  4
FONTBOUNDINGBOX 15 17 -2 -5
COMMENT "Generated by fontforge, http://fontforge.sourceforge.net"
COMMENT "Copyright (c) 2010, Kimberly Geswein (kimberlygeswein.com)"
STARTPROPERTIES 40
FOUNDRY "FontForge"
FAMILY_NAME "Shadows Into Light"
WEIGHT_NAME "Book"
SLANT "R"
SETWIDTH_NAME "Normal"
ADD_STYLE_NAME ""
PIXEL_SIZE 10
POINT_SIZE 100
RESOLUTION_X 72
RESOLUTION_Y 72
SPACING "P"
AVERAGE_WIDTH 42
CHARSET_REGISTRY "ISO10646"
CHARSET_ENCODING "1"
FONTNAME_REGISTRY ""
CHARSET_COLLECTIONS "ISO8859-2 ISO8859-9 ISO8859-4 ISO10646-1"
BITS_PER_PIXEL 4
FONT_NAME "ShadowsIntoLight"
FACE_NAME "Shadows Into Light"
COPYRIGHT "Copyright (c) 2010, Kimberly Geswein (kimberlygeswein.com)"
FONT_VERSION "001.000"
FONT_ASCENT 8
FONT_DESCENT 2
UNDERLINE_POSITION 0
UNDERLINE_THICKNESS 0
X_HEIGHT 5
CAP_HEIGHT 6
RAW_ASCENT 799
RAW_DESCENT 200
NORM_SPACE 5
RELATIVE_WEIGHT 40
RELATIVE_SETWIDTH 50
SUPERSCRIPT_X 0
SUPERSCRIPT_Y 4
SUPERSCRIPT_SIZE 6
SUBSCRIPT_X 0
SUBSCRIPT_Y 1
SUBSCRIPT_SIZE 6
AVG_LOWERCASE_WIDTH 38
AVG_UPPERCASE_WIDTH 49
ENDPROPERTIES
CHARS 352
STARTCHAR space
ENCODING 32
SWIDTH 450 0
DWIDTH 5 0
BBX 1 1 0 0
BITMAP
00
ENDCHAR
STARTCHAR exclam
ENCODING 33
SWIDTH 137 0
DWIDTH 1 0
BBX 2 9 0 0
BITMAP
30
60
70
70
90
50
00
00
21
ENDCHAR
STARTCHAR quotedbl
ENCODING 34
SWIDTH 212 0
DWIDTH 2 0
BBX 2 3 0 5
BITMAP
64
76
54
ENDCHAR
STARTCHAR numbersign
ENCODING 35
SWIDTH 450 0
DWIDTH 5 0
BBX 5 6 0 1
BITMAP
002000
067000
1AA500
195730
0A8500
381400
ENDCHAR
STARTCHAR dollar
ENCODING 36
SWIDTH 445 0
DWIDTH 4 0
BBX 5 9 0 -1
BITMAP
014000
029100
197000
926000
77A400
007510
02C300
028000
007000
ENDCHAR
STARTCHAR percent
ENCODING 37
SWIDTH 450 0
DWIDTH 5 0
BBX 5 8 0 0
BITMAP
002400
757100
858000
317000
034920
060A30
050400
040000
ENDCHAR
STARTCHAR ampersand
ENCODING 38
SWIDTH 356 0
DWIDTH 4 0
BBX 4 5 0 1
BITMAP
0210
0420
59A1
6A50
3440
ENDCHAR
STARTCHAR quotesingle
ENCODING 39
SWIDTH 155 0
DWIDTH 2 0
BBX 1 4 0 3
BITMAP
10
90
70
30
ENDCHAR
STARTCHAR parenleft
ENCODING 40
SWIDTH 291 0
DWIDTH 3 0
BBX 3 9 0 0
BITMAP
0010
0350
0800
4300
7000
7000
8000
7100
1820
ENDCHAR
STARTCHAR parenright
ENCODING 41
SWIDTH 241 0
DWIDTH 2 0
BBX 3 8 0 0
BITMAP
3000
3500
0700
0510
0420
0610
0800
1400
ENDCHAR
STARTCHAR asterisk
ENCODING 42
SWIDTH 481 0
DWIDTH 5 0
BBX 5 6 0 0
BITMAP
021000
146500
4BD730
6CA700
466100
002000
ENDCHAR
STARTCHAR plus
ENCODING 43
SWIDTH 466 0
DWIDTH 5 0
BBX 5 5 0 1
BITMAP
021000
043000
048730
585000
024000
ENDCHAR
STARTCHAR comma
ENCODING 44
SWIDTH 112 0
DWIDTH 1 0
BBX 1 3 0 -1
BITMAP
10
A0
70
ENDCHAR
STARTCHAR hyphen
ENCODING 45
SWIDTH 399 0
DWIDTH 4 0
BBX 4 3 0 1
BITMAP
0002
4894
2000
ENDCHAR
STARTCHAR period
ENCODING 46
SWIDTH 128 0
DWIDTH 1 0
BBX 1 1 0 0
BITMAP
50
ENDCHAR
STARTCHAR slash
ENCODING 47
SWIDTH 306 0
DWIDTH 3 0
BBX 3 8 0 -1
BITMAP
0070
0250
0610
0700
1600
5200
7000
5000
ENDCHAR
STARTCHAR zero
ENCODING 48
SWIDTH 308 0
DWIDTH 3 0
BBX 3 6 0 0
BITMAP
0400
4360
6050
6060
6060
2840
ENDCHAR
STARTCHAR one
ENCODING 49
SWIDTH 112 0
DWIDTH 1 0
BBX 1 7 0 0
BITMAP
10
60
60
70
70
70
60
ENDCHAR
STARTCHAR two
ENCODING 50
SWIDTH 512 0
DWIDTH 5 0
BBX 5 6 0 0
BITMAP
067000
737000
007000
008000
054350
097400
ENDCHAR
STARTCHAR three
ENCODING 51
SWIDTH 461 0
DWIDTH 5 0
BBX 5 7 0 0
BITMAP
27A100
607000
058200
2A3540
000440
003800
038000
ENDCHAR
STARTCHAR four
ENCODING 52
SWIDTH 503 0
DWIDTH 5 0
BBX 5 8 0 0
BITMAP
001600
008800
027800
080800
796B50
410800
000800
000700
ENDCHAR
STARTCHAR five
ENCODING 53
SWIDTH 478 0
DWIDTH 5 0
BBX 5 7 0 0
BITMAP
645640
A50000
805200
874800
411600
009100
044000
ENDCHAR
STARTCHAR six
ENCODING 54
SWIDTH 375 0
DWIDTH 4 0
BBX 4 9 0 0
BITMAP
0100
0800
2500
5200
7000
7186
7724
8570
4B40
ENDCHAR
STARTCHAR seven
ENCODING 55
SWIDTH 458 0
DWIDTH 5 0
BBX 5 8 0 0
BITMAP
003510
586B10
000900
002500
005200
007000
008000
006300
ENDCHAR
STARTCHAR eight
ENCODING 56
SWIDTH 333 0
DWIDTH 3 0
BBX 3 7 0 0
BITMAP
18A0
7270
7060
4750
0840
1450
1970
ENDCHAR
STARTCHAR nine
ENCODING 57
SWIDTH 475 0
DWIDTH 5 0
BBX 5 7 0 0
BITMAP
028700
283D10
72A520
AA1430
000340
000250
000250
ENDCHAR
STARTCHAR colon
ENCODING 58
SWIDTH 120 0
DWIDTH 1 0
BBX 1 4 0 1
BITMAP
10
20
00
40
ENDCHAR
STARTCHAR semicolon
ENCODING 59
SWIDTH 121 0
DWIDTH 1 0
BBX 1 4 0 -1
BITMAP
40
10
A0
70
ENDCHAR
STARTCHAR less
ENCODING 60
SWIDTH 409 0
DWIDTH 4 0
BBX 4 6 0 1
BITMAP
0002
0048
0670
5600
0871
0037
ENDCHAR
STARTCHAR equal
ENCODING 61
SWIDTH 433 0
DWIDTH 4 0
BBX 4 4 0 0
BITMAP
1354
3522
5775
1000
ENDCHAR
STARTCHAR greater
ENCODING 62
SWIDTH 450 0
DWIDTH 5 0
BBX 4 6 0 1
BITMAP
4300
1781
0019
0055
0860
5400
ENDCHAR
STARTCHAR question
ENCODING 63
SWIDTH 445 0
DWIDTH 4 0
BBX 5 10 0 0
BITMAP
001100
696820
100610
004700
038000
091000
037100
000000
000000
023000
ENDCHAR
STARTCHAR at
ENCODING 64
SWIDTH 945 0
DWIDTH 9 0
BBX 10 9 0 0
BITMAP
0003888300
0065000710
0442860340
1717760250
6272660520
90A7056400
A010000041
6500002760
0687776100
ENDCHAR
STARTCHAR A
ENCODING 65
SWIDTH 390 0
DWIDTH 4 0
BBX 5 8 0 0
BITMAP
040000
2D0000
384000
547000
628650
87A300
811700
600600
ENDCHAR
STARTCHAR B
ENCODING 66
SWIDTH 537 0
DWIDTH 5 0
BBX 6 8 0 0
BITMAP
002200
686900
813500
64B691
4D1060
260720
077400
053000
ENDCHAR
STARTCHAR C
ENCODING 67
SWIDTH 487 0
DWIDTH 5 0
BBX 5 8 0 0
BITMAP
003100
065500
070000
430000
700000
700160
700910
588200
ENDCHAR
STARTCHAR D
ENCODING 68
SWIDTH 554 0
DWIDTH 6 0
BBX 6 8 0 0
BITMAP
020000
5C7750
280043
080052
070080
060820
067400
055000
ENDCHAR
STARTCHAR E
ENCODING 69
SWIDTH 474 0
DWIDTH 5 0
BBX 5 8 0 0
BITMAP
000300
978200
730000
522400
595000
450230
455700
4A3000
ENDCHAR
STARTCHAR F
ENCODING 70
SWIDTH 428 0
DWIDTH 4 0
BBX 5 7 0 0
BITMAP
516710
A82000
900000
A03700
984000
810000
600000
ENDCHAR
STARTCHAR G
ENCODING 71
SWIDTH 591 0
DWIDTH 6 0
BBX 6 8 0 -1
BITMAP
001710
017200
081000
3505C6
7000D1
8019B0
699280
000081
ENDCHAR
STARTCHAR H
ENCODING 72
SWIDTH 424 0
DWIDTH 4 0
BBX 4 7 0 0
BITMAP
4023
8007
8008
8079
9817
7007
7007
ENDCHAR
STARTCHAR I
ENCODING 73
SWIDTH 153 0
DWIDTH 2 0
BBX 2 8 0 0
BITMAP
30
62
52
53
43
43
44
33
ENDCHAR
STARTCHAR J
ENCODING 74
SWIDTH 371 0
DWIDTH 4 0
BBX 4 8 0 -1
BITMAP
0070
0080
0072
0053
0034
1025
6035
1660
ENDCHAR
STARTCHAR K
ENCODING 75
SWIDTH 524 0
DWIDTH 5 0
BBX 6 7 0 0
BITMAP
600200
703700
619000
592000
490000
2B7771
060000
ENDCHAR
STARTCHAR L
ENCODING 76
SWIDTH 537 0
DWIDTH 5 0
BBX 6 7 0 0
BITMAP
200000
A00000
A00000
910000
910011
822771
797100
ENDCHAR
STARTCHAR M
ENCODING 77
SWIDTH 682 0
DWIDTH 7 0
BBX 7 8 0 0
BITMAP
62000500
89002A00
64506700
61807600
52475600
54090510
55000440
46000360
ENDCHAR
STARTCHAR N
ENCODING 78
SWIDTH 541 0
DWIDTH 5 0
BBX 5 8 0 0
BITMAP
000040
300090
A70080
884080
619180
431890
3502C0
160050
ENDCHAR
STARTCHAR O
ENCODING 79
SWIDTH 382 0
DWIDTH 4 0
BBX 4 7 0 0
BITMAP
0591
2818
7208
8009
8027
8072
5A50
ENDCHAR
STARTCHAR P
ENCODING 80
SWIDTH 508 0
DWIDTH 5 0
BBX 5 8 0 0
BITMAP
397970
750080
440740
489300
470000
360000
260000
050000
ENDCHAR
STARTCHAR Q
ENCODING 81
SWIDTH 512 0
DWIDTH 5 0
BBX 5 8 0 0
BITMAP
056500
2A1440
620060
800060
702460
700960
610840
188570
ENDCHAR
STARTCHAR R
ENCODING 82
SWIDTH 503 0
DWIDTH 5 0
BBX 5 8 0 0
BITMAP
838840
960190
904600
884000
981000
729710
700270
600000
ENDCHAR
STARTCHAR S
ENCODING 83
SWIDTH 541 0
DWIDTH 5 0
BBX 6 8 0 0
BITMAP
000300
056600
540000
800000
730000
036681
000581
057300
ENDCHAR
STARTCHAR T
ENCODING 84
SWIDTH 595 0
DWIDTH 6 0
BBX 7 7 0 0
BITMAP
367C7750
32080000
00080000
00080000
00071000
00063000
00034000
ENDCHAR
STARTCHAR U
ENCODING 85
SWIDTH 450 0
DWIDTH 5 0
BBX 5 8 0 -1
BITMAP
000100
800720
900A20
800C10
801E10
706720
385430
000240
ENDCHAR
STARTCHAR V
ENCODING 86
SWIDTH 524 0
DWIDTH 5 0
BBX 5 8 0 0
BITMAP
000010
000080
800080
540270
090640
063910
019A00
006800
ENDCHAR
STARTCHAR W
ENCODING 87
SWIDTH 878 0
DWIDTH 9 0
BBX 9 9 0 -1
BITMAP
0000000020
1000200440
9100C20710
4502860800
0906190700
0A07065400
076601D100
02E2003000
0010000000
ENDCHAR
STARTCHAR X
ENCODING 88
SWIDTH 461 0
DWIDTH 5 0
BBX 5 7 0 0
BITMAP
310430
360700
096200
049000
08A000
362600
500800
ENDCHAR
STARTCHAR Y
ENCODING 89
SWIDTH 483 0
DWIDTH 5 0
BBX 5 8 0 0
BITMAP
000050
200160
720610
091900
01B600
008100
008000
016000
ENDCHAR
STARTCHAR Z
ENCODING 90
SWIDTH 670 0
DWIDTH 7 0
BBX 7 7 0 0
BITMAP
4677A600
0001A100
00092000
00740000
04700000
29000000
ABAA9940
ENDCHAR
STARTCHAR bracketleft
ENCODING 91
SWIDTH 470 0
DWIDTH 5 0
BBX 5 13 0 -1
BITMAP
001200
A65300
800000
700000
700000
610000
520000
340000
250000
160000
060000
070010
0C7610
ENDCHAR
STARTCHAR backslash
ENCODING 92
SWIDTH 554 0
DWIDTH 6 0
BBX 6 10 0 0
BITMAP
900000
260000
070000
026000
008000
004500
000900
000550
0000A0
000064
ENDCHAR
STARTCHAR bracketright
ENCODING 93
SWIDTH 512 0
DWIDTH 5 0
BBX 5 13 0 -1
BITMAP
787850
000460
000360
000350
000360
000260
000170
000080
000080
000080
000090
0000A0
006980
ENDCHAR
STARTCHAR asciicircum
ENCODING 94
SWIDTH 390 0
DWIDTH 4 0
BBX 4 4 0 6
BITMAP
0200
0870
5236
2001
ENDCHAR
STARTCHAR underscore
ENCODING 95
SWIDTH 612 0
DWIDTH 6 0
BBX 6 2 0 0
BITMAP
001488
698520
ENDCHAR
STARTCHAR grave
ENCODING 96
SWIDTH 155 0
DWIDTH 2 0
BBX 2 2 0 6
BITMAP
20
71
ENDCHAR
STARTCHAR a
ENCODING 97
SWIDTH 366 0
DWIDTH 4 0
BBX 4 6 0 0
BITMAP
0150
09B1
46A2
93B3
8935
A305
ENDCHAR
STARTCHAR b
ENCODING 98
SWIDTH 442 0
DWIDTH 4 0
BBX 5 9 0 0
BITMAP
310000
820000
810000
801100
85AB00
970710
800A00
719300
892000
ENDCHAR
STARTCHAR c
ENCODING 99
SWIDTH 390 0
DWIDTH 4 0
BBX 4 6 0 0
BITMAP
1940
7350
8000
7003
7026
4881
ENDCHAR
STARTCHAR d
ENCODING 100
SWIDTH 316 0
DWIDTH 3 0
BBX 3 10 0 -1
BITMAP
0060
0080
0060
0170
4990
9080
70A0
7490
9660
0040
ENDCHAR
STARTCHAR e
ENCODING 101
SWIDTH 461 0
DWIDTH 5 0
BBX 5 6 0 0
BITMAP
013000
0A7700
5A8100
C40230
701910
388100
ENDCHAR
STARTCHAR f
ENCODING 102
SWIDTH 345 0
DWIDTH 3 0
BBX 4 9 0 0
BITMAP
0870
0A30
0900
1801
1BA2
5700
0800
0900
0800
ENDCHAR
STARTCHAR g
ENCODING 103
SWIDTH 437 0
DWIDTH 4 0
BBX 4 11 0 -5
BITMAP
0054
076B
447A
727A
991A
330A
000A
0009
0027
05A1
0300
ENDCHAR
STARTCHAR h
ENCODING 104
SWIDTH 466 0
DWIDTH 5 0
BBX 5 8 0 0
BITMAP
200000
800000
800000
809A30
967350
990360
A60260
700260
ENDCHAR
STARTCHAR i
ENCODING 105
SWIDTH 132 0
DWIDTH 1 0
BBX 1 8 0 0
BITMAP
20
10
50
90
90
80
80
70
ENDCHAR
STARTCHAR j
ENCODING 106
SWIDTH 112 0
DWIDTH 1 0
BBX 4 12 -2 -4
BITMAP
0030
0000
0010
0080
0080
0080
0080
0080
0071
0070
6490
0320
ENDCHAR
STARTCHAR k
ENCODING 107
SWIDTH 428 0
DWIDTH 4 0
BBX 4 9 0 -1
BITMAP
4000
8200
8108
9057
92B0
9A20
A920
8169
2000
ENDCHAR
STARTCHAR l
ENCODING 108
SWIDTH 137 0
DWIDTH 1 0
BBX 2 9 0 0
BITMAP
30
70
60
60
70
70
71
71
61
ENDCHAR
STARTCHAR m
ENCODING 109
SWIDTH 579 0
DWIDTH 6 0
BBX 6 6 0 0
BITMAP
800000
7573D0
799881
787862
764453
530024
ENDCHAR
STARTCHAR n
ENCODING 110
SWIDTH 483 0
DWIDTH 5 0
BBX 5 6 0 0
BITMAP
506A00
829530
972350
890260
790170
550050
ENDCHAR
STARTCHAR o
ENCODING 111
SWIDTH 266 0
DWIDTH 3 0
BBX 3 6 0 0
BITMAP
2500
7640
7070
8170
8440
8800
ENDCHAR
STARTCHAR p
ENCODING 112
SWIDTH 482 0
DWIDTH 5 0
BBX 5 9 0 -3
BITMAP
100000
847660
A50460
704800
896000
830000
700000
700000
500000
ENDCHAR
STARTCHAR q
ENCODING 113
SWIDTH 408 0
DWIDTH 4 0
BBX 5 8 0 -3
BITMAP
027100
184600
716800
818800
471800
000800
000710
000420
ENDCHAR
STARTCHAR r
ENCODING 114
SWIDTH 396 0
DWIDTH 4 0
BBX 4 5 0 0
BITMAP
74A5
7800
6800
4A00
1900
ENDCHAR
STARTCHAR s
ENCODING 115
SWIDTH 366 0
DWIDTH 4 0
BBX 4 6 0 -1
BITMAP
1770
7100
8794
1245
0780
0200
ENDCHAR
STARTCHAR t
ENCODING 116
SWIDTH 268 0
DWIDTH 3 0
BBX 4 9 -1 -1
BITMAP
0320
0620
0665
3D71
0720
0620
0530
0440
0010
ENDCHAR
STARTCHAR u
ENCODING 117
SWIDTH 387 0
DWIDTH 4 0
BBX 4 6 0 -1
BITMAP
6043
8053
8063
80C4
4B66
0001
ENDCHAR
STARTCHAR v
ENCODING 118
SWIDTH 354 0
DWIDTH 4 0
BBX 4 6 0 0
BITMAP
0021
2054
9164
2863
08B2
00C1
ENDCHAR
STARTCHAR w
ENCODING 119
SWIDTH 566 0
DWIDTH 6 0
BBX 6 6 0 0
BITMAP
001000
70B252
449853
099493
0880A4
036022
ENDCHAR
STARTCHAR x
ENCODING 120
SWIDTH 454 0
DWIDTH 5 0
BBX 5 7 0 -1
BITMAP
009000
609000
388000
05B000
065900
090230
060000
ENDCHAR
STARTCHAR y
ENCODING 121
SWIDTH 363 0
DWIDTH 4 0
BBX 4 10 0 -4
BITMAP
0001
5016
6426
0936
02C5
0084
0043
0052
0071
0060
ENDCHAR
STARTCHAR z
ENCODING 122
SWIDTH 618 0
DWIDTH 6 0
BBX 7 5 0 0
BITMAP
148C0000
54290000
00810000
01701410
05B98610
ENDCHAR
STARTCHAR braceleft
ENCODING 123
SWIDTH 348 0
DWIDTH 3 0
BBX 4 10 0 -1
BITMAP
0361
2802
2600
0900
8500
3900
A100
7000
8200
1950
ENDCHAR
STARTCHAR bar
ENCODING 124
SWIDTH 137 0
DWIDTH 1 0
BBX 2 9 0 0
BITMAP
30
70
60
60
70
70
71
71
61
ENDCHAR
STARTCHAR braceright
ENCODING 125
SWIDTH 348 0
DWIDTH 3 0
BBX 4 10 0 -1
BITMAP
2200
4740
0160
0610
0490
0450
02B0
0061
0080
2A50
ENDCHAR
STARTCHAR asciitilde
ENCODING 126
SWIDTH 458 0
DWIDTH 5 0
BBX 5 3 0 5
BITMAP
010000
778A10
105300
ENDCHAR
STARTCHAR nonbreakingspace
ENCODING 160
SWIDTH 450 0
DWIDTH 5 0
BBX 1 1 0 0
BITMAP
00
ENDCHAR
STARTCHAR exclamdown
ENCODING 161
SWIDTH 137 0
DWIDTH 1 0
BBX 2 7 0 -2
BITMAP
11
00
30
70
60
50
20
ENDCHAR
STARTCHAR cent
ENCODING 162
SWIDTH 394 0
DWIDTH 4 0
BBX 4 8 0 -1
BITMAP
0700
1B70
6660
8320
7233
7256
49A1
0230
ENDCHAR
STARTCHAR sterling
ENCODING 163
SWIDTH 539 0
DWIDTH 5 0
BBX 5 8 0 -1
BITMAP
001750
018020
074200
7B3000
080000
080200
0A8680
010000
ENDCHAR
STARTCHAR currency
ENCODING 164
SWIDTH 500 0
DWIDTH 5 0
BBX 5 7 0 0
BITMAP
000410
0A9B00
081700
070700
0B6800
745700
100000
ENDCHAR
STARTCHAR yen
ENCODING 165
SWIDTH 478 0
DWIDTH 5 0
BBX 5 8 0 0
BITMAP
070A20
0A4900
04E100
009000
29D910
26B600
118000
007000
ENDCHAR
STARTCHAR brokenbar
ENCODING 166
SWIDTH 137 0
DWIDTH 1 0
BBX 2 9 0 0
BITMAP
30
70
70
50
40
60
61
71
61
ENDCHAR
STARTCHAR section
ENCODING 167
SWIDTH 366 0
DWIDTH 4 0
BBX 4 9 0 -1
BITMAP
0250
5510
8020
8A96
8182
9BB4
1245
0780
0200
ENDCHAR
STARTCHAR dieresis
ENCODING 168
SWIDTH 306 0
DWIDTH 3 0
BBX 3 2 0 6
BITMAP
2340
1010
ENDCHAR
STARTCHAR copyright
ENCODING 169
SWIDTH 485 0
DWIDTH 5 0
BBX 5 7 0 0
BITMAP
029700
093460
588290
780190
873C60
816A00
5A9100
ENDCHAR
STARTCHAR ordfeminine
ENCODING 170
SWIDTH 227 0
DWIDTH 2 0
BBX 2 3 0 1
BITMAP
15
68
85
ENDCHAR
STARTCHAR guillemotleft
ENCODING 171
SWIDTH 652 0
DWIDTH 7 0
BBX 6 6 0 1
BITMAP
000203
004876
067840
568400
088881
003725
ENDCHAR
STARTCHAR logicalnot
ENCODING 172
SWIDTH 539 0
DWIDTH 5 0
BBX 5 3 0 1
BITMAP
2678A0
000070
000050
ENDCHAR
STARTCHAR uni00AD
ENCODING 173
SWIDTH 399 0
DWIDTH 4 0
BBX 4 3 0 1
BITMAP
0002
4894
2000
ENDCHAR
STARTCHAR registered
ENCODING 174
SWIDTH 382 0
DWIDTH 4 0
BBX 5 7 0 0
BITMAP
028400
072830
695780
878290
877680
830920
5A8300
ENDCHAR
STARTCHAR macron
ENCODING 175
SWIDTH 399 0
DWIDTH 4 0
BBX 4 2 0 6
BITMAP
1354
4431
ENDCHAR
STARTCHAR degree
ENCODING 176
SWIDTH 201 0
DWIDTH 2 0
BBX 2 3 0 3
BITMAP
33
77
11
ENDCHAR
STARTCHAR plusminus
ENCODING 177
SWIDTH 466 0
DWIDTH 5 0
BBX 4 6 0 0
BITMAP
0210
0430
0485
5850
1595
2320
ENDCHAR
STARTCHAR twosuperior
ENCODING 178
SWIDTH 318 0
DWIDTH 3 0
BBX 3 4 0 1
BITMAP
0200
4500
0500
2630
ENDCHAR
STARTCHAR threesuperior
ENCODING 179
SWIDTH 280 0
DWIDTH 3 0
BBX 3 4 0 2
BITMAP
4600
2720
1040
0610
ENDCHAR
STARTCHAR acute
ENCODING 180
SWIDTH 155 0
DWIDTH 2 0
BBX 2 2 0 6
BITMAP
01
82
ENDCHAR
STARTCHAR mu
ENCODING 181
SWIDTH 387 0
DWIDTH 4 0
BBX 4 8 0 -2
BITMAP
2011
8054
9054
A095
B4C5
8611
6000
1000
ENDCHAR
STARTCHAR paragraph
ENCODING 182
SWIDTH 447 0
DWIDTH 4 0
BBX 4 7 0 0
BITMAP
0354
8FF9
AEC7
0088
0069
0059
0047
ENDCHAR
STARTCHAR periodcentered
ENCODING 183
SWIDTH 128 0
DWIDTH 1 0
BBX 1 1 0 2
BITMAP
60
ENDCHAR
STARTCHAR cedilla
ENCODING 184
SWIDTH 322 0
DWIDTH 3 0
BBX 3 4 0 -3
BITMAP
2100
5400
1880
2990
ENDCHAR
STARTCHAR onesuperior
ENCODING 185
SWIDTH 112 0
DWIDTH 1 0
BBX 1 4 0 2
BITMAP
20
50
60
60
ENDCHAR
STARTCHAR ordmasculine
ENCODING 186
SWIDTH 212 0
DWIDTH 2 0
BBX 2 3 0 1
BITMAP
55
66
76
ENDCHAR
STARTCHAR guillemotright
ENCODING 187
SWIDTH 625 0
DWIDTH 6 0
BBX 6 6 0 1
BITMAP
436300
179881
001918
005682
087A30
545100
ENDCHAR
STARTCHAR onequarter
ENCODING 188
SWIDTH 678 0
DWIDTH 7 0
BBX 7 8 0 -1
BITMAP
00700000
00701000
5250B200
66177200
67778610
66205200
51005200
50000000
ENDCHAR
STARTCHAR onehalf
ENCODING 189
SWIDTH 693 0
DWIDTH 7 0
BBX 6 8 0 -1
BITMAP
001600
505200
507110
50A660
543060
070431
070854
140000
ENDCHAR
STARTCHAR threequarters
ENCODING 190
SWIDTH 868 0
DWIDTH 9 0
BBX 7 8 0 -1
BITMAP
00100700
45703D00
05508B00
1726D520
0029D840
03661500
00070500
00050000
ENDCHAR
STARTCHAR questiondown
ENCODING 191
SWIDTH 541 0
DWIDTH 5 0
BBX 6 9 0 -1
BITMAP
001300
000000
000000
006800
001900
019100
081000
282591
035200
ENDCHAR
STARTCHAR Agrave
ENCODING 192
SWIDTH 390 0
DWIDTH 4 0
BBX 5 9 0 0
BITMAP
020000
0B1000
0E1000
186000
367000
447760
699500
720700
600600
ENDCHAR
STARTCHAR Aacute
ENCODING 193
SWIDTH 390 0
DWIDTH 4 0
BBX 5 10 0 0
BITMAP
010000
280000
040000
2D0000
384000
547000
628650
87A300
811700
600600
ENDCHAR
STARTCHAR Acircumflex
ENCODING 194
SWIDTH 390 0
DWIDTH 4 0
BBX 6 11 -1 0
BITMAP
002000
068200
170810
114100
02D000
038400
054700
062865
087A30
081170
060060
ENDCHAR
STARTCHAR Atilde
ENCODING 195
SWIDTH 390 0
DWIDTH 4 0
BBX 5 11 0 0
BITMAP
110000
9A5700
116000
040000
2D0000
384000
547000
628650
87A300
811700
600600
ENDCHAR
STARTCHAR Adieresis
ENCODING 196
SWIDTH 390 0
DWIDTH 4 0
BBX 5 9 0 0
BITMAP
323000
141000
2D0000
384000
547000
628650
87A300
811700
600600
ENDCHAR
STARTCHAR Aring
ENCODING 197
SWIDTH 390 0
DWIDTH 4 0
BBX 5 9 0 0
BITMAP
782000
883000
2D0000
384000
547000
628650
87A300
811700
600600
ENDCHAR
STARTCHAR AE
ENCODING 198
SWIDTH 708 0
DWIDTH 7 0
BBX 7 8 0 0
BITMAP
04000210
2D3A9500
38580000
54771500
628B6000
87AB0050
811B3820
600A6000
ENDCHAR
STARTCHAR Ccedilla
ENCODING 199
SWIDTH 487 0
DWIDTH 5 0
BBX 5 12 0 -4
BITMAP
003100
065500
070000
430000
700000
700160
700910
588200
071000
03A400
027A00
012000
ENDCHAR
STARTCHAR Egrave
ENCODING 200
SWIDTH 474 0
DWIDTH 5 0
BBX 5 10 0 0
BITMAP
020000
062000
000300
978200
730000
522400
595000
450230
455700
4A3000
ENDCHAR
STARTCHAR Eacute
ENCODING 201
SWIDTH 474 0
DWIDTH 5 0
BBX 5 9 0 0
BITMAP
001000
019300
979200
730000
522400
595000
450230
455700
4A3000
ENDCHAR
STARTCHAR Ecircumflex
ENCODING 202
SWIDTH 474 0
DWIDTH 5 0
BBX 5 11 0 0
BITMAP
002000
058200
070810
210300
978200
730000
522400
595000
450230
455700
4A3000
ENDCHAR
STARTCHAR Edieresis
ENCODING 203
SWIDTH 474 0
DWIDTH 5 0
BBX 5 9 0 0
BITMAP
043100
011300
978200
730000
522400
595000
450230
455700
4A3000
ENDCHAR
STARTCHAR Igrave
ENCODING 204
SWIDTH 153 0
DWIDTH 2 0
BBX 2 10 0 0
BITMAP
20
71
30
62
52
53
43
43
44
33
ENDCHAR
STARTCHAR Iacute
ENCODING 205
SWIDTH 153 0
DWIDTH 2 0
BBX 2 10 0 0
BITMAP
01
64
30
62
52
53
43
43
44
33
ENDCHAR
STARTCHAR Icircumflex
ENCODING 206
SWIDTH 153 0
DWIDTH 2 0
BBX 4 11 -1 0
BITMAP
0200
0870
6236
2301
0620
0520
0530
0430
0430
0440
0330
ENDCHAR
STARTCHAR Idieresis
ENCODING 207
SWIDTH 153 0
DWIDTH 2 0
BBX 3 9 -1 0
BITMAP
1440
0410
0620
0520
0530
0430
0430
0440
0330
ENDCHAR
STARTCHAR Eth
ENCODING 208
SWIDTH 554 0
DWIDTH 6 0
BBX 6 8 0 0
BITMAP
020000
5C7750
280043
080052
070080
4B7820
077400
055000
ENDCHAR
STARTCHAR Ntilde
ENCODING 209
SWIDTH 541 0
DWIDTH 5 0
BBX 5 10 0 0
BITMAP
010000
678910
104340
300090
A70080
884080
619180
431890
3502C0
160050
ENDCHAR
STARTCHAR Ograve
ENCODING 210
SWIDTH 382 0
DWIDTH 4 0
BBX 4 9 0 0
BITMAP
0020
0081
0591
2818
7208
8009
8027
8072
5A50
ENDCHAR
STARTCHAR Oacute
ENCODING 211
SWIDTH 382 0
DWIDTH 4 0
BBX 4 9 0 0
BITMAP
0010
0730
0591
2818
7208
8009
8027
8072
5A50
ENDCHAR
STARTCHAR Ocircumflex
ENCODING 212
SWIDTH 382 0
DWIDTH 4 0
BBX 4 10 0 0
BITMAP
0200
0960
6145
2592
2818
7208
8009
8027
8072
5A50
ENDCHAR
STARTCHAR Otilde
ENCODING 213
SWIDTH 382 0
DWIDTH 4 0
BBX 5 10 0 0
BITMAP
010000
579920
104300
059100
281800
720800
800900
802700
807200
5A5000
ENDCHAR
STARTCHAR Odieresis
ENCODING 214
SWIDTH 382 0
DWIDTH 4 0
BBX 4 9 0 0
BITMAP
0323
0111
0591
2818
7208
8009
8027
8072
5A50
ENDCHAR
STARTCHAR multiply
ENCODING 215
SWIDTH 454 0
DWIDTH 5 0
BBX 4 4 0 1
BITMAP
1413
0791
0880
2241
ENDCHAR
STARTCHAR Oslash
ENCODING 216
SWIDTH 382 0
DWIDTH 4 0
BBX 4 8 0 -1
BITMAP
05B3
2888
7278
8439
8727
8772
6B50
4000
ENDCHAR
STARTCHAR Ugrave
ENCODING 217
SWIDTH 450 0
DWIDTH 5 0
BBX 5 10 0 -1
BITMAP
020000
036000
000100
800720
900A20
800C10
801E10
706720
385430
000240
ENDCHAR
STARTCHAR Uacute
ENCODING 218
SWIDTH 450 0
DWIDTH 5 0
BBX 5 9 0 -1
BITMAP
001000
019100
800720
900A20
800C10
801E10
706720
385430
000240
ENDCHAR
STARTCHAR Ucircumflex
ENCODING 219
SWIDTH 450 0
DWIDTH 5 0
BBX 5 11 0 -1
BITMAP
011000
078100
251800
200200
800720
900A20
800C10
801E10
706720
385430
000240
ENDCHAR
STARTCHAR Udieresis
ENCODING 220
SWIDTH 450 0
DWIDTH 5 0
BBX 5 9 0 -1
BITMAP
043200
011100
800720
900A20
800C10
801E10
706720
385430
000240
ENDCHAR
STARTCHAR Yacute
ENCODING 221
SWIDTH 483 0
DWIDTH 5 0
BBX 5 10 0 0
BITMAP
000100
008200
000050
200160
720610
091900
01B600
008100
008000
016000
ENDCHAR
STARTCHAR Thorn
ENCODING 222
SWIDTH 398 0
DWIDTH 4 0
BBX 4 8 0 0
BITMAP
8000
8273
9829
9108
9064
A830
9000
6000
ENDCHAR
STARTCHAR germandbls
ENCODING 223
SWIDTH 537 0
DWIDTH 5 0
BBX 6 8 0 0
BITMAP
002200
686900
813500
64B691
4D1060
260720
077400
053000
ENDCHAR
STARTCHAR agrave
ENCODING 224
SWIDTH 366 0
DWIDTH 4 0
BBX 4 8 0 0
BITMAP
0200
0810
0150
09B1
46A2
93B3
8935
A305
ENDCHAR
STARTCHAR aacute
ENCODING 225
SWIDTH 366 0
DWIDTH 4 0
BBX 4 8 0 0
BITMAP
0010
0550
0150
09B1
46A2
93B3
8935
A305
ENDCHAR
STARTCHAR acircumflex
ENCODING 226
SWIDTH 366 0
DWIDTH 4 0
BBX 4 10 0 0
BITMAP
0200
1960
7145
2001
0150
09B1
46A2
93B3
8935
A305
ENDCHAR
STARTCHAR atilde
ENCODING 227
SWIDTH 366 0
DWIDTH 4 0
BBX 4 8 0 0
BITMAP
0200
876A
11A2
09B1
46A2
93B3
8935
A305
ENDCHAR
STARTCHAR adieresis
ENCODING 228
SWIDTH 366 0
DWIDTH 4 0
BBX 4 8 0 0
BITMAP
1340
0110
0150
09B1
46A2
93B3
8935
A305
ENDCHAR
STARTCHAR aring
ENCODING 229
SWIDTH 366 0
DWIDTH 4 0
BBX 4 7 0 0
BITMAP
0781
19A1
09B1
46A2
93B3
8935
A305
ENDCHAR
STARTCHAR ae
ENCODING 230
SWIDTH 705 0
DWIDTH 7 0
BBX 7 6 0 0
BITMAP
01517500
09B93A00
46AD7100
93C90080
89380820
A3097200
ENDCHAR
STARTCHAR ccedilla
ENCODING 231
SWIDTH 390 0
DWIDTH 4 0
BBX 4 9 0 -3
BITMAP
1940
7350
8000
7003
7026
4881
0900
05A1
06B3
ENDCHAR
STARTCHAR egrave
ENCODING 232
SWIDTH 461 0
DWIDTH 5 0
BBX 5 8 0 0
BITMAP
020000
026000
014000
0A7700
5A8100
C40230
701910
388100
ENDCHAR
STARTCHAR eacute
ENCODING 233
SWIDTH 461 0
DWIDTH 5 0
BBX 5 8 0 0
BITMAP
001000
00A000
014000
0A7700
5A8100
C40230
701910
388100
ENDCHAR
STARTCHAR ecircumflex
ENCODING 234
SWIDTH 461 0
DWIDTH 5 0
BBX 5 10 0 0
BITMAP
011000
078100
261800
200100
013000
0A7700
5A8100
C40230
701910
388100
ENDCHAR
STARTCHAR edieresis
ENCODING 235
SWIDTH 461 0
DWIDTH 5 0
BBX 5 8 0 0
BITMAP
042200
011000
013000
0A7700
5A8100
C40230
701910
388100
ENDCHAR
STARTCHAR igrave
ENCODING 236
SWIDTH 132 0
DWIDTH 1 0
BBX 1 8 0 0
BITMAP
90
20
50
90
90
80
80
70
ENDCHAR
STARTCHAR iacute
ENCODING 237
SWIDTH 132 0
DWIDTH 1 0
BBX 2 9 0 0
BITMAP
02
72
00
50
90
90
80
80
70
ENDCHAR
STARTCHAR icircumflex
ENCODING 238
SWIDTH 132 0
DWIDTH 1 0
BBX 4 10 -1 0
BITMAP
0200
3940
7073
2001
0500
0900
0900
0800
0800
0700
ENDCHAR
STARTCHAR idieresis
ENCODING 239
SWIDTH 132 0
DWIDTH 1 0
BBX 3 8 -1 0
BITMAP
2340
1110
0500
0900
0900
0800
0800
0700
ENDCHAR
STARTCHAR eth
ENCODING 240
SWIDTH 481 0
DWIDTH 5 0
BBX 5 7 0 0
BITMAP
001000
018000
03B740
032700
2B9700
434A00
099200
ENDCHAR
STARTCHAR ntilde
ENCODING 241
SWIDTH 483 0
DWIDTH 5 0
BBX 5 9 0 0
BITMAP
011000
28A740
102500
506A00
829530
972350
890260
790170
550050
ENDCHAR
STARTCHAR ograve
ENCODING 242
SWIDTH 266 0
DWIDTH 3 0
BBX 3 8 0 0
BITMAP
2000
2700
2600
7640
7070
8170
8440
8800
ENDCHAR
STARTCHAR oacute
ENCODING 243
SWIDTH 266 0
DWIDTH 3 0
BBX 3 8 0 0
BITMAP
0100
0A00
2600
7640
7070
8170
8440
8800
ENDCHAR
STARTCHAR ocircumflex
ENCODING 244
SWIDTH 266 0
DWIDTH 3 0
BBX 4 10 -1 0
BITMAP
0120
0681
1608
2001
0250
0764
0707
0817
0844
0880
ENDCHAR
STARTCHAR otilde
ENCODING 245
SWIDTH 266 0
DWIDTH 3 0
BBX 5 8 -1 0
BITMAP
011000
28A650
028500
076400
070700
081700
084400
088000
ENDCHAR
STARTCHAR odieresis
ENCODING 246
SWIDTH 266 0
DWIDTH 3 0
BBX 3 8 0 0
BITMAP
4220
1110
2500
7640
7070
8170
8440
8800
ENDCHAR
STARTCHAR divide
ENCODING 247
SWIDTH 345 0
DWIDTH 3 0
BBX 4 4 0 1
BITMAP
0100
0431
4541
0400
ENDCHAR
STARTCHAR oslash
ENCODING 248
SWIDTH 266 0
DWIDTH 3 0
BBX 3 7 0 -1
BITMAP
2560
7850
7770
9770
B640
A800
5000
ENDCHAR
STARTCHAR ugrave
ENCODING 249
SWIDTH 387 0
DWIDTH 4 0
BBX 4 9 0 -1
BITMAP
0200
0720
0000
6043
8053
8063
80C4
4B66
0001
ENDCHAR
STARTCHAR uacute
ENCODING 250
SWIDTH 387 0
DWIDTH 4 0
BBX 4 9 0 -1
BITMAP
0010
0470
0000
6043
8053
8063
80C4
4B66
0001
ENDCHAR
STARTCHAR ucircumflex
ENCODING 251
SWIDTH 387 0
DWIDTH 4 0
BBX 4 11 0 -1
BITMAP
0200
0870
6236
2001
0000
6043
8053
8063
80C4
4B66
0001
ENDCHAR
STARTCHAR udieresis
ENCODING 252
SWIDTH 387 0
DWIDTH 4 0
BBX 4 9 0 -1
BITMAP
0440
0110
0000
6043
8053
8063
80C4
4B66
0001
ENDCHAR
STARTCHAR yacute
ENCODING 253
SWIDTH 363 0
DWIDTH 4 0
BBX 4 12 0 -4
BITMAP
0010
0550
0001
5016
6426
0936
02C5
0084
0043
0052
0071
0060
ENDCHAR
STARTCHAR thorn
ENCODING 254
SWIDTH 439 0
DWIDTH 4 0
BBX 5 8 0 -1
BITMAP
400000
866810
920800
718200
8A2000
700000
700000
100000
ENDCHAR
STARTCHAR ydieresis
ENCODING 255
SWIDTH 363 0
DWIDTH 4 0
BBX 4 12 0 -4
BITMAP
1340
0110
0001
5016
6426
0936
02C5
0084
0043
0052
0071
0060
ENDCHAR
STARTCHAR Amacron
ENCODING 256
SWIDTH 390 0
DWIDTH 4 0
BBX 5 9 0 0
BITMAP
245400
472100
2D0000
384000
547000
628650
87A300
811700
600600
ENDCHAR
STARTCHAR amacron
ENCODING 257
SWIDTH 366 0
DWIDTH 4 0
BBX 4 8 0 0
BITMAP
2354
4321
0150
09B1
46A2
93B3
8935
A305
ENDCHAR
STARTCHAR Abreve
ENCODING 258
SWIDTH 390 0
DWIDTH 4 0
BBX 5 10 0 0
BITMAP
102000
298000
040000
2D0000
384000
547000
628650
87A300
811700
600600
ENDCHAR
STARTCHAR abreve
ENCODING 259
SWIDTH 366 0
DWIDTH 4 0
BBX 4 8 0 0
BITMAP
1121
1990
0150
09B1
46A2
93B3
8935
A305
ENDCHAR
STARTCHAR Aogonek
ENCODING 260
SWIDTH 390 0
DWIDTH 4 0
BBX 5 11 0 -3
BITMAP
040000
2D0000
384000
547000
628650
87A300
811700
600700
004500
007340
001620
ENDCHAR
STARTCHAR aogonek
ENCODING 261
SWIDTH 366 0
DWIDTH 4 0
BBX 5 8 0 -2
BITMAP
015000
09B100
46A200
93B300
893500
A33500
008000
008930
ENDCHAR
STARTCHAR Cacute
ENCODING 262
SWIDTH 487 0
DWIDTH 5 0
BBX 5 10 0 0
BITMAP
001000
00A000
003100
065500
070000
430000
700000
700160
700910
588200
ENDCHAR
STARTCHAR cacute
ENCODING 263
SWIDTH 390 0
DWIDTH 4 0
BBX 4 9 0 0
BITMAP
0010
0740
0000
1940
7350
8000
7003
7026
4881
ENDCHAR
STARTCHAR Ccircumflex
ENCODING 264
SWIDTH 487 0
DWIDTH 5 0
BBX 5 11 0 0
BITMAP
002000
068100
160810
213100
065500
070000
430000
700000
700160
700910
588200
ENDCHAR
STARTCHAR ccircumflex
ENCODING 265
SWIDTH 390 0
DWIDTH 4 0
BBX 4 10 0 0
BITMAP
0200
0870
6236
2001
1940
7350
8000
7003
7026
4881
ENDCHAR
STARTCHAR Cdotaccent
ENCODING 266
SWIDTH 487 0
DWIDTH 5 0
BBX 5 10 0 0
BITMAP
001000
005000
003100
065500
070000
430000
700000
700160
700910
588200
ENDCHAR
STARTCHAR cdotaccent
ENCODING 267
SWIDTH 390 0
DWIDTH 4 0
BBX 4 7 0 0
BITMAP
0400
1A40
7350
8000
7003
7026
4881
ENDCHAR
STARTCHAR Ccaron
ENCODING 268
SWIDTH 487 0
DWIDTH 5 0
BBX 5 9 0 0
BITMAP
160600
03A100
065500
070000
430000
700000
700160
700910
588200
ENDCHAR
STARTCHAR ccaron
ENCODING 269
SWIDTH 390 0
DWIDTH 4 0
BBX 4 8 0 0
BITMAP
5234
0740
1940
7350
8000
7003
7026
4881
ENDCHAR
STARTCHAR Dcaron
ENCODING 270
SWIDTH 554 0
DWIDTH 6 0
BBX 6 9 0 0
BITMAP
051340
027400
5C7750
280043
080052
070080
060820
067400
055000
ENDCHAR
STARTCHAR Emacron
ENCODING 274
SWIDTH 474 0
DWIDTH 5 0
BBX 5 9 0 0
BITMAP
135600
343400
978200
730000
522400
595000
450230
455700
4A3000
ENDCHAR
STARTCHAR emacron
ENCODING 275
SWIDTH 461 0
DWIDTH 5 0
BBX 5 8 0 0
BITMAP
134610
243200
013000
0A7700
5A8100
C40230
701910
388100
ENDCHAR
STARTCHAR Ebreve
ENCODING 276
SWIDTH 474 0
DWIDTH 5 0
BBX 5 10 0 0
BITMAP
010200
06A400
000300
978200
730000
522400
595000
450230
455700
4A3000
ENDCHAR
STARTCHAR ebreve
ENCODING 277
SWIDTH 461 0
DWIDTH 5 0
BBX 5 8 0 0
BITMAP
010200
05A400
013000
0A7700
5A8100
C40230
701910
388100
ENDCHAR
STARTCHAR Edotaccent
ENCODING 278
SWIDTH 474 0
DWIDTH 5 0
BBX 5 8 0 0
BITMAP
032300
978200
730000
522400
595000
450230
455700
4A3000
ENDCHAR
STARTCHAR edotaccent
ENCODING 279
SWIDTH 461 0
DWIDTH 5 0
BBX 5 7 0 0
BITMAP
001000
018000
0A7700
5A8100
C40230
701910
388100
ENDCHAR
STARTCHAR Eogonek
ENCODING 280
SWIDTH 474 0
DWIDTH 5 0
BBX 5 9 0 -1
BITMAP
000300
978200
730000
522400
595000
450230
455700
4AA000
008930
ENDCHAR
STARTCHAR eogonek
ENCODING 281
SWIDTH 461 0
DWIDTH 5 0
BBX 5 8 0 -2
BITMAP
013000
0A7700
5A8100
C40230
701910
388100
080000
069500
ENDCHAR
STARTCHAR Ecaron
ENCODING 282
SWIDTH 474 0
DWIDTH 5 0
BBX 5 9 0 0
BITMAP
341600
056300
978200
730000
522400
595000
450230
455700
4A3000
ENDCHAR
STARTCHAR ecaron
ENCODING 283
SWIDTH 461 0
DWIDTH 5 0
BBX 5 8 0 0
BITMAP
251600
046000
013000
0A7700
5A8100
C40230
701910
388100
ENDCHAR
STARTCHAR Gcircumflex
ENCODING 284
SWIDTH 591 0
DWIDTH 6 0
BBX 6 11 0 -1
BITMAP
002000
009600
061360
021710
017200
081000
3505C6
7000D1
8019B0
699280
000081
ENDCHAR
STARTCHAR gcircumflex
ENCODING 285
SWIDTH 437 0
DWIDTH 4 0
BBX 4 15 0 -5
BITMAP
0110
0780
3418
2001
0054
076B
447A
727A
991A
330A
000A
0009
0027
05A1
0300
ENDCHAR
STARTCHAR Gbreve
ENCODING 286
SWIDTH 591 0
DWIDTH 6 0
BBX 6 10 0 -1
BITMAP
001020
007A20
001710
017200
081000
3505C6
7000D1
8019B0
699280
000081
ENDCHAR
STARTCHAR gbreve
ENCODING 287
SWIDTH 437 0
DWIDTH 4 0
BBX 4 14 0 -5
BITMAP
0102
07A3
0000
0054
076B
447A
727A
991A
330A
000A
0009
0027
05A1
0300
ENDCHAR
STARTCHAR Gdotaccent
ENCODING 288
SWIDTH 591 0
DWIDTH 6 0
BBX 6 9 0 -1
BITMAP
002300
000620
007300
062000
1704A9
6200A4
8007B2
4A9462
000053
ENDCHAR
STARTCHAR gdotaccent
ENCODING 289
SWIDTH 437 0
DWIDTH 4 0
BBX 4 13 0 -5
BITMAP
0010
0050
0054
076B
447A
727A
991A
330A
000A
0009
0027
05A1
0300
ENDCHAR
STARTCHAR Gcommaaccent
ENCODING 290
SWIDTH 591 0
DWIDTH 6 0
BBX 6 11 0 -4
BITMAP
001710
017200
081000
3505C6
7000D1
8019B0
699280
000081
006300
006200
001000
ENDCHAR
STARTCHAR Hcircumflex
ENCODING 292
SWIDTH 424 0
DWIDTH 4 0
BBX 4 11 0 0
BITMAP
0200
0870
6236
2001
4023
8007
8008
8079
9817
7007
7007
ENDCHAR
STARTCHAR hcircumflex
ENCODING 293
SWIDTH 466 0
DWIDTH 5 0
BBX 5 10 0 0
BITMAP
002000
008700
243270
820010
800000
809A30
967350
990360
A60260
700260
ENDCHAR
STARTCHAR Hbar
ENCODING 294
SWIDTH 424 0
DWIDTH 4 0
BBX 4 7 0 0
BITMAP
4023
8017
A78A
8079
9817
7007
7007
ENDCHAR
STARTCHAR hbar
ENCODING 295
SWIDTH 466 0
DWIDTH 5 0
BBX 6 8 -1 0
BITMAP
020000
080000
195600
3A3AA3
096735
099036
0A6026
070026
ENDCHAR
STARTCHAR Itilde
ENCODING 296
SWIDTH 153 0
DWIDTH 2 0
BBX 4 11 -1 0
BITMAP
0100
9A58
1160
0300
0620
0520
0530
0430
0430
0440
0330
ENDCHAR
STARTCHAR itilde
ENCODING 297
SWIDTH 132 0
DWIDTH 1 0
BBX 5 8 -2 0
BITMAP
188250
124910
005000
009000
009000
008000
008000
007000
ENDCHAR
STARTCHAR imacron
ENCODING 299
SWIDTH 132 0
DWIDTH 1 0
BBX 4 8 -1 0
BITMAP
2463
4321
0500
0900
0900
0800
0800
0700
ENDCHAR
STARTCHAR Ibreve
ENCODING 300
SWIDTH 153 0
DWIDTH 2 0
BBX 3 10 -1 0
BITMAP
1020
1990
0300
0620
0520
0530
0430
0430
0440
0330
ENDCHAR
STARTCHAR ibreve
ENCODING 301
SWIDTH 132 0
DWIDTH 1 0
BBX 3 8 -1 0
BITMAP
3380
0630
0500
0900
0900
0800
0800
0700
ENDCHAR
STARTCHAR Iogonek
ENCODING 302
SWIDTH 153 0
DWIDTH 2 0
BBX 3 10 0 -2
BITMAP
3000
6200
5200
5300
4300
4300
4400
5400
8000
7930
ENDCHAR
STARTCHAR iogonek
ENCODING 303
SWIDTH 132 0
DWIDTH 1 0
BBX 3 11 -1 -3
BITMAP
0200
0100
0500
0900
0900
0800
0800
0800
1700
2870
0320
ENDCHAR
STARTCHAR Idotaccent
ENCODING 304
SWIDTH 153 0
DWIDTH 2 0
BBX 2 9 0 0
BITMAP
41
30
70
71
61
62
62
52
42
ENDCHAR
STARTCHAR dotlessi
ENCODING 305
SWIDTH 132 0
DWIDTH 1 0
BBX 1 6 0 0
BITMAP
50
90
90
80
80
70
ENDCHAR
STARTCHAR Jcircumflex
ENCODING 308
SWIDTH 371 0
DWIDTH 4 0
BBX 5 11 0 -1
BITMAP
002000
058200
071810
117000
008000
007200
005300
003400
102500
603500
166000
ENDCHAR
STARTCHAR jcircumflex
ENCODING 309
SWIDTH 112 0
DWIDTH 1 0
BBX 5 14 -2 -4
BITMAP
002000
048300
070720
110000
001000
008000
008000
008000
008000
008000
007100
007000
649000
032000
ENDCHAR
STARTCHAR Kcommaaccent
ENCODING 310
SWIDTH 524 0
DWIDTH 5 0
BBX 6 11 0 -4
BITMAP
600200
703700
619000
592000
490000
2B7771
060000
000000
009000
008000
001000
ENDCHAR
STARTCHAR kcommaaccent
ENCODING 311
SWIDTH 428 0
DWIDTH 4 0
BBX 4 12 0 -4
BITMAP
4000
8200
8108
9057
92B0
9A20
A920
8169
2000
0360
0340
0100
ENDCHAR
STARTCHAR Lacute
ENCODING 313
SWIDTH 537 0
DWIDTH 5 0
BBX 6 8 0 0
BITMAP
000100
207400
A00000
A00000
910000
910011
822771
797100
ENDCHAR
STARTCHAR lacute
ENCODING 314
SWIDTH 137 0
DWIDTH 1 0
BBX 2 12 0 0
BITMAP
01
92
00
30
70
60
60
70
70
71
71
61
ENDCHAR
STARTCHAR Lcommaaccent
ENCODING 315
SWIDTH 537 0
DWIDTH 5 0
BBX 6 11 0 -4
BITMAP
200000
A00000
A00000
910000
910011
822771
797100
000000
009000
008000
001000
ENDCHAR
STARTCHAR lcommaaccent
ENCODING 316
SWIDTH 137 0
DWIDTH 1 0
BBX 2 13 0 -4
BITMAP
30
70
60
60
70
70
71
71
61
00
90
80
10
ENDCHAR
STARTCHAR Lcaron
ENCODING 317
SWIDTH 537 0
DWIDTH 5 0
BBX 6 9 0 0
BITMAP
341600
055000
200000
A00000
A00000
910000
910011
822771
797100
ENDCHAR
STARTCHAR Ldot
ENCODING 319
SWIDTH 537 0
DWIDTH 5 0
BBX 6 7 0 0
BITMAP
200000
A00000
A00000
910000
915011
822771
797100
ENDCHAR
STARTCHAR ldot
ENCODING 320
SWIDTH 267 0
DWIDTH 3 0
BBX 3 9 0 0
BITMAP
3000
7000
6000
6000
7000
7000
7420
7100
6100
ENDCHAR
STARTCHAR Lslash
ENCODING 321
SWIDTH 537 0
DWIDTH 5 0
BBX 7 7 -1 0
BITMAP
02000000
0A000000
0A000000
09142000
2C951110
08227710
07971000
ENDCHAR
STARTCHAR lslash
ENCODING 322
SWIDTH 137 0
DWIDTH 1 0
BBX 4 9 -1 0
BITMAP
0300
0700
0600
0600
0700
0712
5B82
2710
0610
ENDCHAR
STARTCHAR Nacute
ENCODING 323
SWIDTH 541 0
DWIDTH 5 0
BBX 5 9 0 0
BITMAP
001000
028040
300090
A70080
884080
619180
431890
3502C0
160050
ENDCHAR
STARTCHAR nacute
ENCODING 324
SWIDTH 483 0
DWIDTH 5 0
BBX 5 8 0 0
BITMAP
001000
019000
506A00
829530
972350
890260
790170
550050
ENDCHAR
STARTCHAR Ncommaaccent
ENCODING 325
SWIDTH 541 0
DWIDTH 5 0
BBX 5 12 0 -4
BITMAP
000040
300090
A70080
884080
619180
431890
3502C0
160050
000000
009000
008000
001000
ENDCHAR
STARTCHAR ncommaaccent
ENCODING 326
SWIDTH 483 0
DWIDTH 5 0
BBX 5 10 0 -4
BITMAP
506A00
829530
972350
890260
790170
550050
000000
009000
008000
001000
ENDCHAR
STARTCHAR Ncaron
ENCODING 327
SWIDTH 541 0
DWIDTH 5 0
BBX 5 9 0 0
BITMAP
060610
027240
300090
A70080
884080
619180
431890
3502C0
160050
ENDCHAR
STARTCHAR ncaron
ENCODING 328
SWIDTH 483 0
DWIDTH 5 0
BBX 5 8 0 0
BITMAP
160600
037100
506A00
829530
972350
890260
790170
550050
ENDCHAR
STARTCHAR napostrophe
ENCODING 329
SWIDTH 483 0
DWIDTH 5 0
BBX 5 9 0 0
BITMAP
090000
080000
010000
506A00
829530
972350
890260
790170
550050
ENDCHAR
STARTCHAR Omacron
ENCODING 332
SWIDTH 382 0
DWIDTH 4 0
BBX 5 9 0 0
BITMAP
024610
243200
059100
281800
720800
800900
802700
807200
5A5000
ENDCHAR
STARTCHAR omacron
ENCODING 333
SWIDTH 266 0
DWIDTH 3 0
BBX 5 8 -1 0
BITMAP
134610
243200
025000
076400
070700
081700
084400
088000
ENDCHAR
STARTCHAR Obreve
ENCODING 334
SWIDTH 382 0
DWIDTH 4 0
BBX 4 9 0 0
BITMAP
1121
1990
0591
2818
7208
8009
8027
8072
5A50
ENDCHAR
STARTCHAR obreve
ENCODING 335
SWIDTH 266 0
DWIDTH 3 0
BBX 3 8 0 0
BITMAP
1020
5A50
2500
7640
7070
8170
8440
8800
ENDCHAR
STARTCHAR Ohungarumlaut
ENCODING 336
SWIDTH 382 0
DWIDTH 4 0
BBX 4 10 0 0
BITMAP
0010
01A8
0022
0591
2818
7208
8009
8027
8072
5A50
ENDCHAR
STARTCHAR ohungarumlaut
ENCODING 337
SWIDTH 266 0
DWIDTH 3 0
BBX 3 8 0 0
BITMAP
0100
4960
3800
7640
7070
8170
8440
8800
ENDCHAR
STARTCHAR OE
ENCODING 338
SWIDTH 732 0
DWIDTH 7 0
BBX 8 8 0 0
BITMAP
00000010
05997820
281C2000
72090310
800B7400
802E0031
807B0750
5A5A8100
ENDCHAR
STARTCHAR oe
ENCODING 339
SWIDTH 628 0
DWIDTH 6 0
BBX 7 6 0 0
BITMAP
25025000
765A7600
70EA6000
81F10420
84B02900
88386000
ENDCHAR
STARTCHAR Racute
ENCODING 340
SWIDTH 503 0
DWIDTH 5 0
BBX 5 10 0 0
BITMAP
000100
006400
838840
960190
904600
884000
981000
729710
700270
600000
ENDCHAR
STARTCHAR racute
ENCODING 341
SWIDTH 396 0
DWIDTH 4 0
BBX 4 8 0 0
BITMAP
0010
0370
0000
74A5
7800
6800
4A00
1900
ENDCHAR
STARTCHAR Rcommaaccent
ENCODING 342
SWIDTH 503 0
DWIDTH 5 0
BBX 5 12 0 -4
BITMAP
838840
960190
904600
884000
981000
729710
700270
600000
000000
009000
008000
001000
ENDCHAR
STARTCHAR rcommaaccent
ENCODING 343
SWIDTH 396 0
DWIDTH 4 0
BBX 4 9 0 -4
BITMAP
74A5
7800
6800
4A00
1900
0000
0540
0520
0100
ENDCHAR
STARTCHAR Rcaron
ENCODING 344
SWIDTH 503 0
DWIDTH 5 0
BBX 5 10 0 0
BITMAP
060520
017200
838840
960190
904600
884000
981000
729710
700270
600000
ENDCHAR
STARTCHAR rcaron
ENCODING 345
SWIDTH 396 0
DWIDTH 4 0
BBX 4 8 0 0
BITMAP
5234
0740
0000
74A5
7800
6800
4A00
1900
ENDCHAR
STARTCHAR Sacute
ENCODING 346
SWIDTH 541 0
DWIDTH 5 0
BBX 6 10 0 0
BITMAP
000100
007300
001300
056600
540000
800000
730000
036681
000581
057300
ENDCHAR
STARTCHAR sacute
ENCODING 347
SWIDTH 366 0
DWIDTH 4 0
BBX 4 9 0 -1
BITMAP
0010
0550
0000
1770
7100
8794
1245
0780
0200
ENDCHAR
STARTCHAR Scircumflex
ENCODING 348
SWIDTH 541 0
DWIDTH 5 0
BBX 6 11 0 0
BITMAP
002000
009600
061450
020310
056600
540000
800000
730000
036681
000581
057300
ENDCHAR
STARTCHAR scircumflex
ENCODING 349
SWIDTH 366 0
DWIDTH 4 0
BBX 4 10 0 -1
BITMAP
0200
0870
6236
2001
1770
7100
8794
1245
0780
0200
ENDCHAR
STARTCHAR Scedilla
ENCODING 350
SWIDTH 541 0
DWIDTH 5 0
BBX 6 11 0 -3
BITMAP
000300
056600
540000
800000
730000
036681
000581
057500
000910
0004A3
0005A4
ENDCHAR
STARTCHAR scedilla
ENCODING 351
SWIDTH 366 0
DWIDTH 4 0
BBX 4 9 0 -4
BITMAP
1770
7100
8794
1245
0780
0910
03A4
0398
0110
ENDCHAR
STARTCHAR Scaron
ENCODING 352
SWIDTH 541 0
DWIDTH 5 0
BBX 6 9 0 0
BITMAP
060520
018500
056600
540000
800000
730000
036681
000581
057300
ENDCHAR
STARTCHAR scaron
ENCODING 353
SWIDTH 366 0
DWIDTH 4 0
BBX 4 9 0 -1
BITMAP
6143
0730
0000
1770
7100
8794
1245
0780
0200
ENDCHAR
STARTCHAR Tcommaaccent
ENCODING 354
SWIDTH 595 0
DWIDTH 6 0
BBX 7 11 0 -4
BITMAP
367C7750
32080000
00080000
00080000
00071000
00063000
00034000
00000000
00009000
00007000
00001000
ENDCHAR
STARTCHAR tcommaaccent
ENCODING 355
SWIDTH 268 0
DWIDTH 3 0
BBX 4 12 -1 -4
BITMAP
0320
0620
0665
3D71
0720
0620
0530
0440
0010
0090
0080
0010
ENDCHAR
STARTCHAR Tcaron
ENCODING 356
SWIDTH 595 0
DWIDTH 6 0
BBX 7 10 0 0
BITMAP
00614300
00073000
00000000
367C7750
32080000
00080000
00080000
00071000
00063000
00034000
ENDCHAR
STARTCHAR Tbar
ENCODING 358
SWIDTH 595 0
DWIDTH 6 0
BBX 7 7 0 0
BITMAP
367C7750
32080000
027B8100
00080000
00071000
00063000
00034000
ENDCHAR
STARTCHAR Utilde
ENCODING 360
SWIDTH 450 0
DWIDTH 5 0
BBX 5 10 0 -1
BITMAP
010000
579920
104400
800720
900A20
800C10
801E10
706720
385430
000240
ENDCHAR
STARTCHAR utilde
ENCODING 361
SWIDTH 387 0
DWIDTH 4 0
BBX 4 9 0 -1
BITMAP
0100
9958
1161
6043
8053
8063
80C4
4B66
0001
ENDCHAR
STARTCHAR Umacron
ENCODING 362
SWIDTH 450 0
DWIDTH 5 0
BBX 5 9 0 -1
BITMAP
135600
243300
800720
900A20
800C10
801E10
706720
385430
000240
ENDCHAR
STARTCHAR umacron
ENCODING 363
SWIDTH 387 0
DWIDTH 4 0
BBX 4 9 0 -1
BITMAP
1354
4431
0000
6043
8053
8063
80C4
4B66
0001
ENDCHAR
STARTCHAR Ubreve
ENCODING 364
SWIDTH 450 0
DWIDTH 5 0
BBX 5 9 0 -1
BITMAP
010200
06A500
800720
900A20
800C10
801E10
706720
385430
000240
ENDCHAR
STARTCHAR ubreve
ENCODING 365
SWIDTH 387 0
DWIDTH 4 0
BBX 4 9 0 -1
BITMAP
0111
09A1
0000
6043
8053
8063
80C4
4B66
0001
ENDCHAR
STARTCHAR Uring
ENCODING 366
SWIDTH 450 0
DWIDTH 5 0
BBX 5 9 0 -1
BITMAP
078200
097400
800720
900A20
800C10
801E10
706720
385430
000240
ENDCHAR
STARTCHAR uring
ENCODING 367
SWIDTH 387 0
DWIDTH 4 0
BBX 4 8 0 -1
BITMAP
1780
1881
6043
8053
8063
80C4
4B66
0001
ENDCHAR
STARTCHAR Uhungarumlaut
ENCODING 368
SWIDTH 450 0
DWIDTH 5 0
BBX 5 10 0 -1
BITMAP
001000
079300
013100
800720
900A20
800C10
801E10
706720
385430
000240
ENDCHAR
STARTCHAR uhungarumlaut
ENCODING 369
SWIDTH 387 0
DWIDTH 4 0
BBX 4 9 0 -1
BITMAP
0100
1A80
0210
6043
8053
8063
80C4
4B66
0001
ENDCHAR
STARTCHAR Uogonek
ENCODING 370
SWIDTH 450 0
DWIDTH 5 0
BBX 6 10 0 -3
BITMAP
000100
800720
900A20
800C10
801E10
706720
385430
000840
001710
000891
ENDCHAR
STARTCHAR uogonek
ENCODING 371
SWIDTH 387 0
DWIDTH 4 0
BBX 5 8 0 -3
BITMAP
604300
805300
806300
80C400
4B7600
008200
009520
002400
ENDCHAR
STARTCHAR Wcircumflex
ENCODING 372
SWIDTH 878 0
DWIDTH 9 0
BBX 9 12 0 -1
BITMAP
0000200000
0006810000
0016081000
0021010020
1000200440
9100C20710
4502860800
0906190700
0A07065400
076601D100
02E2003000
0010000000
ENDCHAR
STARTCHAR wcircumflex
ENCODING 373
SWIDTH 566 0
DWIDTH 6 0
BBX 6 10 0 0
BITMAP
002000
019500
071540
020010
001000
70B252
449853
099493
0880A4
036022
ENDCHAR
STARTCHAR Ycircumflex
ENCODING 374
SWIDTH 483 0
DWIDTH 5 0
BBX 5 11 0 0
BITMAP
002000
068200
170810
110150
200160
720610
091900
01B600
008100
008000
016000
ENDCHAR
STARTCHAR ycircumflex
ENCODING 375
SWIDTH 363 0
DWIDTH 4 0
BBX 4 14 0 -4
BITMAP
0200
1950
7154
2001
0001
5016
6426
0936
02C5
0084
0043
0052
0071
0060
ENDCHAR
STARTCHAR Ydieresis
ENCODING 376
SWIDTH 483 0
DWIDTH 5 0
BBX 5 8 0 0
BITMAP
032350
211260
720610
091900
01B600
008100
008000
016000
ENDCHAR
STARTCHAR Zacute
ENCODING 377
SWIDTH 670 0
DWIDTH 7 0
BBX 7 10 0 0
BITMAP
00010000
00370000
00000000
4677A600
0001A100
00092000
00740000
04700000
29000000
ABAA9940
ENDCHAR
STARTCHAR zacute
ENCODING 378
SWIDTH 618 0
DWIDTH 6 0
BBX 7 8 0 0
BITMAP
00010000
00280000
00000000
148C0000
54290000
00810000
01701410
05B98610
ENDCHAR
STARTCHAR Zdotaccent
ENCODING 379
SWIDTH 670 0
DWIDTH 7 0
BBX 7 9 0 0
BITMAP
00010000
00050000
4677A600
0001A100
00092000
00740000
04700000
29000000
ABAA9940
ENDCHAR
STARTCHAR zdotaccent
ENCODING 380
SWIDTH 618 0
DWIDTH 6 0
BBX 7 6 0 0
BITMAP
00230000
148C0000
54290000
00810000
01701410
05B98610
ENDCHAR
STARTCHAR Zcaron
ENCODING 381
SWIDTH 670 0
DWIDTH 7 0
BBX 7 9 0 0
BITMAP
00606100
00271000
4677A600
0001A100
00092000
00740000
04700000
29000000
ABAA9940
ENDCHAR
STARTCHAR zcaron
ENCODING 382
SWIDTH 618 0
DWIDTH 6 0
BBX 7 7 0 0
BITMAP
06143000
00730000
148C0000
54290000
00810000
01701410
05B98610
ENDCHAR
STARTCHAR florin
ENCODING 402
SWIDTH 345 0
DWIDTH 3 0
BBX 5 12 -1 -3
BITMAP
008700
00A300
009000
018010
01B920
057000
007000
008000
009000
00A000
01A000
174000
ENDCHAR
STARTCHAR AEacute
ENCODING 508
SWIDTH 708 0
DWIDTH 7 0
BBX 7 10 0 0
BITMAP
00010000
00640000
04100210
2D3A9500
38580000
54771500
628B6000
87AB0050
811B3820
600A6000
ENDCHAR
STARTCHAR aeacute
ENCODING 509
SWIDTH 705 0
DWIDTH 7 0
BBX 7 8 0 0
BITMAP
00001000
00082000
01517500
09B93A00
46AD7100
93C90080
89380820
A3097200
ENDCHAR
STARTCHAR Oslashacute
ENCODING 510
SWIDTH 382 0
DWIDTH 4 0
BBX 4 11 0 -1
BITMAP
0010
0190
0000
05B3
2888
7278
8439
8727
8772
6B50
4000
ENDCHAR
STARTCHAR oslashacute
ENCODING 511
SWIDTH 266 0
DWIDTH 3 0
BBX 3 9 0 -1
BITMAP
0100
0A00
2660
7850
7770
9770
B640
A800
5000
ENDCHAR
STARTCHAR Scommaaccent
ENCODING 536
SWIDTH 541 0
DWIDTH 5 0
BBX 6 12 0 -4
BITMAP
000300
056600
540000
800000
730000
036681
000581
057300
000000
009000
008000
001000
ENDCHAR
STARTCHAR scommaaccent
ENCODING 537
SWIDTH 366 0
DWIDTH 4 0
BBX 4 9 0 -4
BITMAP
1770
7100
8794
1245
0780
0200
0820
0700
0100
ENDCHAR
STARTCHAR circumflex
ENCODING 710
SWIDTH 390 0
DWIDTH 4 0
BBX 4 4 0 6
BITMAP
0200
0870
5236
2001
ENDCHAR
STARTCHAR caron
ENCODING 711
SWIDTH 390 0
DWIDTH 4 0
BBX 4 2 0 6
BITMAP
3416
0550
ENDCHAR
STARTCHAR breve
ENCODING 728
SWIDTH 390 0
DWIDTH 4 0
BBX 3 2 0 6
BITMAP
1020
1990
ENDCHAR
STARTCHAR dotaccent
ENCODING 729
SWIDTH 128 0
DWIDTH 1 0
BBX 1 2 0 5
BITMAP
10
50
ENDCHAR
STARTCHAR ring
ENCODING 730
SWIDTH 266 0
DWIDTH 3 0
BBX 3 2 0 5
BITMAP
5830
8650
ENDCHAR
STARTCHAR ogonek
ENCODING 731
SWIDTH 366 0
DWIDTH 4 0
BBX 3 4 1 -3
BITMAP
1000
8100
8420
4500
ENDCHAR
STARTCHAR tilde
ENCODING 732
SWIDTH 458 0
DWIDTH 5 0
BBX 5 3 0 5
BITMAP
010000
778A10
105300
ENDCHAR
STARTCHAR hungarumlaut
ENCODING 733
SWIDTH 239 0
DWIDTH 2 0
BBX 3 2 0 4
BITMAP
8920
1300
ENDCHAR
STARTCHAR Wgrave
ENCODING 7808
SWIDTH 878 0
DWIDTH 9 0
BBX 9 11 0 -1
BITMAP
0000200000
0000900000
0000000020
1000200440
9100C20710
4502860800
0906190700
0A07065400
076601D100
02E2003000
0010000000
ENDCHAR
STARTCHAR wgrave
ENCODING 7809
SWIDTH 566 0
DWIDTH 6 0
BBX 6 8 0 0
BITMAP
002000
008100
001000
70B252
449853
099493
0880A4
036022
ENDCHAR
STARTCHAR Wacute
ENCODING 7810
SWIDTH 878 0
DWIDTH 9 0
BBX 9 11 0 -1
BITMAP
0000100000
0004600000
0000000020
1000200440
9100C20710
4502860800
0906190700
0A07065400
076601D100
02E2003000
0010000000
ENDCHAR
STARTCHAR wacute
ENCODING 7811
SWIDTH 566 0
DWIDTH 6 0
BBX 6 8 0 0
BITMAP
000100
005500
001000
70B252
449853
099493
0880A4
036022
ENDCHAR
STARTCHAR Wdieresis
ENCODING 7812
SWIDTH 878 0
DWIDTH 9 0
BBX 9 10 0 -1
BITMAP
0003230000
0001010020
1000200440
9100C20710
4502860800
0906190700
0A07065400
076601D100
02E2003000
0010000000
ENDCHAR
STARTCHAR wdieresis
ENCODING 7813
SWIDTH 566 0
DWIDTH 6 0
BBX 6 8 0 0
BITMAP
014400
001100
001000
70B252
449853
099493
0880A4
036022
ENDCHAR
STARTCHAR Ygrave
ENCODING 7922
SWIDTH 483 0
DWIDTH 5 0
BBX 5 10 0 0
BITMAP
011000
008000
000050
200160
720610
091900
01B600
008100
008000
016000
ENDCHAR
STARTCHAR ygrave
ENCODING 7923
SWIDTH 363 0
DWIDTH 4 0
BBX 4 12 0 -4
BITMAP
0200
0810
0001
5016
6426
0936
02C5
0084
0043
0052
0071
0060
ENDCHAR
STARTCHAR endash
ENCODING 8211
SWIDTH 399 0
DWIDTH 4 0
BBX 4 3 0 1
BITMAP
0002
4894
2000
ENDCHAR
STARTCHAR emdash
ENCODING 8212
SWIDTH 549 0
DWIDTH 6 0
BBX 5 2 0 1
BITMAP
478870
200000
ENDCHAR
STARTCHAR quoteleft
ENCODING 8216
SWIDTH 155 0
DWIDTH 2 0
BBX 1 4 0 3
BITMAP
10
90
70
30
ENDCHAR
STARTCHAR quoteright
ENCODING 8217
SWIDTH 155 0
DWIDTH 2 0
BBX 1 4 0 3
BITMAP
10
90
70
30
ENDCHAR
STARTCHAR quotesinglbase
ENCODING 8218
SWIDTH 155 0
DWIDTH 2 0
BBX 2 3 0 0
BITMAP
60
71
51
ENDCHAR
STARTCHAR quotedblleft
ENCODING 8220
SWIDTH 212 0
DWIDTH 2 0
BBX 2 3 0 5
BITMAP
64
76
54
ENDCHAR
STARTCHAR quotedblright
ENCODING 8221
SWIDTH 212 0
DWIDTH 2 0
BBX 2 3 0 5
BITMAP
64
76
54
ENDCHAR
STARTCHAR quotedblbase
ENCODING 8222
SWIDTH 212 0
DWIDTH 2 0
BBX 2 3 0 0
BITMAP
64
76
64
ENDCHAR
STARTCHAR dagger
ENCODING 8224
SWIDTH 268 0
DWIDTH 3 0
BBX 4 9 -1 -1
BITMAP
0320
0620
0665
3D71
0720
0620
0530
0440
0010
ENDCHAR
STARTCHAR daggerdbl
ENCODING 8225
SWIDTH 326 0
DWIDTH 3 0
BBX 4 9 0 -1
BITMAP
0500
0800
0972
9C30
4C82
2900
0800
0800
0100
ENDCHAR
STARTCHAR bullet
ENCODING 8226
SWIDTH 189 0
DWIDTH 2 0
BBX 2 2 0 2
BITMAP
45
55
ENDCHAR
STARTCHAR ellipsis
ENCODING 8230
SWIDTH 387 0
DWIDTH 4 0
BBX 4 1 0 0
BITMAP
5335
ENDCHAR
STARTCHAR guilsinglleft
ENCODING 8249
SWIDTH 409 0
DWIDTH 4 0
BBX 4 6 0 1
BITMAP
0002
0048
0670
5600
0871
0037
ENDCHAR
STARTCHAR guilsinglright
ENCODING 8250
SWIDTH 450 0
DWIDTH 5 0
BBX 4 6 0 1
BITMAP
4300
1781
0019
0055
0860
5400
ENDCHAR
STARTCHAR fraction
ENCODING 8260
SWIDTH 306 0
DWIDTH 3 0
BBX 3 8 0 -1
BITMAP
0070
0250
0610
0700
1600
5200
7000
5000
ENDCHAR
STARTCHAR Euro
ENCODING 8364
SWIDTH 589 0
DWIDTH 6 0
BBX 6 8 0 0
BITMAP
000310
006550
007000
045200
5C5100
3A7600
380026
058981
ENDCHAR
STARTCHAR trademark
ENCODING 8482
SWIDTH 1278 0
DWIDTH 13 0
BBX 13 8 0 0
BITMAP
00000062000500
367C77B9003900
32080065406600
00080060907600
00080062574700
00071063090610
00063055000530
00034045000350
ENDCHAR
STARTCHAR minus
ENCODING 8722
SWIDTH 358 0
DWIDTH 4 0
BBX 4 2 0 2
BITMAP
0131
3551
ENDCHAR
STARTCHAR commaaccent
ENCODING 63171
SWIDTH 450 0
DWIDTH 5 0
BBX 2 3 1 -4
BITMAP
36
34
10
ENDCHAR
STARTCHAR fi
ENCODING 64257
SWIDTH 409 0
DWIDTH 4 0
BBX 4 9 0 0
BITMAP
0870
0A42
0901
1805
1BA8
5708
0808
0908
0807
ENDCHAR
STARTCHAR fl
ENCODING 64258
SWIDTH 416 0
DWIDTH 4 0
BBX 4 9 0 0
BITMAP
0872
0A46
0906
1806
1BA8
5707
0807
0908
0809
ENDCHAR
STARTCHAR .notdef
ENCODING -1
SWIDTH 450 0
DWIDTH 5 0
BBX 1 1 0 0
BITMAP
00
ENDCHAR
STARTCHAR .null
ENCODING -1
SWIDTH 0 0
DWIDTH 0 0
BBX 1 1 0 0
BITMAP
00
ENDCHAR
STARTCHAR nonmarkingreturn
ENCODING -1
SWIDTH 450 0
DWIDTH 5 0
BBX 1 1 0 0
BITMAP
00
ENDCHAR
ENDFONT
